<?xml version="1.0" standalone="no"?>
<!DOCTYPE svg PUBLIC "-//W3C//DTD SVG 20010904//EN"
 "http://www.w3.org/TR/2001/REC-SVG-20010904/DTD/svg10.dtd">
<svg version="1.0" xmlns="http://www.w3.org/2000/svg"
 width="800.000000pt" height="665.000000pt" viewBox="0 0 800.000000 665.000000"
 preserveAspectRatio="xMidYMid meet">
<metadata>
Created by potrace 1.15, written by Peter Selinger 2001-2017
</metadata>
<g transform="translate(0.000000,665.000000) scale(0.100000,-0.100000)"
fill="#000000" stroke="none">
<path d="M2092 6428 c-60 -187 -67 -236 -66 -453 0 -184 2 -208 27 -298 l26
-97 -67 -84 c-156 -195 -255 -437 -283 -695 -14 -124 -6 -404 15 -562 15 -108
49 -266 71 -330 l13 -36 -371 -6 c-465 -7 -751 -31 -1084 -89 -109 -19 -123
-23 -123 -41 0 -17 5 -19 37 -13 442 77 787 106 1265 106 l288 0 28 -62 28
-63 -110 -8 c-588 -39 -963 -92 -1359 -189 -142 -34 -167 -43 -167 -59 0 -11
5 -19 11 -19 5 0 73 16 149 35 256 64 544 116 840 149 166 19 514 46 596 46
l60 0 63 -96 c228 -349 660 -578 1241 -660 63 -9 120 -18 126 -19 6 -2 -20
-35 -57 -74 -73 -75 -139 -193 -162 -286 -12 -47 -16 -52 -67 -77 -127 -63
-345 -87 -474 -53 -151 40 -277 140 -389 310 -146 221 -319 335 -511 335 -90
0 -139 -22 -144 -64 -5 -40 34 -77 145 -138 148 -82 205 -147 354 -403 76
-129 197 -259 299 -318 182 -105 401 -131 708 -81 l42 7 0 -390 0 -390 -31
-61 c-35 -72 -67 -101 -160 -148 -69 -34 -89 -55 -89 -93 0 -37 37 -51 136
-51 228 0 413 100 476 258 22 55 22 70 29 527 7 504 10 535 62 629 49 87 48
99 45 -676 l-3 -723 -23 -43 c-12 -23 -42 -56 -65 -73 -48 -35 -66 -62 -67
-101 -1 -89 145 -91 313 -7 71 36 126 85 165 147 61 95 60 84 68 876 8 786 6
762 59 738 l25 -12 1 -377 c1 -208 4 -547 8 -753 6 -367 7 -376 30 -423 52
-105 153 -186 291 -233 135 -45 220 -22 220 62 0 19 -14 39 -51 73 -58 52 -82
93 -98 169 -13 63 -16 1392 -3 1392 14 0 60 -92 78 -156 14 -50 18 -133 23
-519 7 -447 7 -462 29 -517 63 -157 248 -258 471 -258 95 0 131 15 131 53 0
36 -26 64 -91 98 -67 36 -117 90 -151 165 -23 49 -23 53 -29 624 -5 549 -6
578 -27 653 -33 118 -95 229 -173 308 -61 61 -66 69 -46 73 12 2 76 12 142 21
618 84 1036 320 1216 688 l33 67 76 0 c94 0 432 -25 610 -46 296 -33 584 -85
840 -149 76 -19 144 -35 149 -35 6 0 11 8 11 19 0 16 -25 25 -167 59 -393 96
-817 156 -1290 183 l-209 12 22 61 22 61 388 -1 c467 0 785 -25 1113 -85 129
-23 131 -23 131 -1 0 16 -18 22 -122 40 -354 62 -665 85 -1126 86 l-373 1 7
25 c42 163 66 411 67 685 1 249 -12 350 -68 521 -58 176 -136 315 -266 470
l-68 82 21 98 c17 85 19 123 15 269 -6 180 -18 255 -68 413 l-30 92 -92 0
c-215 0 -470 -101 -833 -330 -18 -11 -42 -9 -160 14 -238 46 -379 59 -644 60
-306 0 -542 -25 -788 -84 -46 -11 -89 -20 -97 -20 -7 0 -60 30 -117 66 -298
189 -575 294 -775 294 l-92 0 -29 -92z m1424 -1624 c290 -21 615 -21 909 1
428 31 649 14 802 -63 175 -89 351 -316 397 -512 9 -36 16 -111 16 -170 0
-204 -33 -368 -103 -515 -142 -295 -423 -438 -947 -484 -334 -30 -942 -22
-1239 14 -554 69 -876 270 -995 621 -39 117 -51 200 -51 359 0 131 3 159 24
220 32 95 80 180 153 270 129 162 258 232 488 268 64 10 348 5 546 -9z"/>
<path d="M3021 4329 c-184 -94 -201 -463 -29 -602 51 -41 127 -48 186 -18 150
77 197 381 83 538 -69 95 -156 125 -240 82z m24 -114 c30 -29 32 -64 5 -93
-26 -28 -67 -28 -97 0 -30 28 -29 63 2 93 31 32 59 32 90 0z"/>
<path d="M4819 4327 c-169 -90 -202 -422 -56 -576 165 -174 398 40 357 329
-17 122 -74 215 -155 251 -54 25 -93 24 -146 -4z"/>
<path d="M3921 3643 c-12 -10 -24 -34 -27 -54 -5 -28 -1 -41 18 -63 50 -58
148 -22 148 55 0 65 -88 104 -139 62z"/>
<path d="M3775 3380 c-11 -18 39 -93 83 -125 39 -27 52 -30 116 -30 63 0 78 4
115 28 46 31 81 80 81 115 0 36 -32 26 -58 -18 -26 -46 -84 -80 -137 -80 -53
0 -111 34 -137 80 -22 38 -50 51 -63 30z"/>
</g>
</svg>
